<?xml version="1.0" encoding="UTF-8"?>
<svg xmlns="http://www.w3.org/2000/svg" xmlns:xlink="http://www.w3.org/1999/xlink" width="96pt" height="96pt" viewBox="0 0 96 96" version="1.1">
<g id="surface1029756">
<path style=" stroke:none;fill-rule:nonzero;fill:rgb(0%,0%,0%);fill-opacity:1;" d="M 84 74 C 84 79.523438 79.523438 84 74 84 L 22 84 C 16.476562 84 12 79.523438 12 74 L 12 22 C 12 16.476562 16.476562 12 22 12 L 74 12 C 79.523438 12 84 16.476562 84 22 Z M 84 74 "/>
<path style=" stroke:none;fill-rule:nonzero;fill:rgb(100%,100%,100%);fill-opacity:1;" d="M 66.058594 51.199219 C 64.761719 49.398438 62.878906 48.160156 60.460938 47.5 C 60.460938 47.5 62.5 46.761719 64.339844 44 C 65.441406 42.238281 66 40.121094 66 37.640625 C 66 33.339844 64.441406 30.039062 61.320312 27.78125 C 58.199219 25.519531 54.679688 24 48.699219 24 L 30 24 L 30 72 L 50.859375 72 C 56.519531 71.960938 60.78125 70.738281 63.679688 68.398438 C 66.558594 66.019531 68 62.5 68 57.800781 C 68 55.199219 67.359375 53 66.058594 51.199219 Z M 42 32 C 42 32 50.339844 32 50.5 32 C 53.539062 32 56 34.460938 56 37.5 C 56 40.539062 53.539062 43 50.5 43 C 50.339844 43 42 43 42 43 Z M 52 64 L 42 64 L 42 52 L 52 52 C 55.320312 52 58 54.679688 58 58 C 58 61.320312 55.320312 64 52 64 Z M 52 64 "/>
</g>
</svg>
